<svg xmlns="http://www.w3.org/2000/svg" xmlns:xlink="http://www.w3.org/1999/xlink" width="500" zoomAndPan="magnify" viewBox="0 0 375 374.999991" height="500" preserveAspectRatio="xMidYMid meet" version="1.0"><defs><clipPath id="fd1c175f1f"><path d="M 18.285156 18.285156 L 356.714844 18.285156 L 356.714844 356.714844 L 18.285156 356.714844 Z M 18.285156 18.285156 " clip-rule="nonzero"/></clipPath><clipPath id="399deffdab"><path d="M 187.5 18.285156 C 94.046875 18.285156 18.285156 94.046875 18.285156 187.5 C 18.285156 280.953125 94.046875 356.714844 187.5 356.714844 C 280.953125 356.714844 356.714844 280.953125 356.714844 187.5 C 356.714844 94.046875 280.953125 18.285156 187.5 18.285156 Z M 187.5 18.285156 " clip-rule="nonzero"/></clipPath><clipPath id="192f4c54f3"><path d="M 70.4375 122.914062 L 258.578125 122.914062 L 258.578125 179.914062 L 70.4375 179.914062 Z M 70.4375 122.914062 " clip-rule="nonzero"/></clipPath><clipPath id="f43f38d5be"><path d="M 119.492188 122.914062 L 258.46875 122.914062 L 209.414062 179.914062 L 70.4375 179.914062 Z M 119.492188 122.914062 " clip-rule="nonzero"/></clipPath><clipPath id="18f96dbf1b"><path d="M 295.265625 173.414062 L 303.515625 173.414062 L 303.515625 181.664062 L 295.265625 181.664062 Z M 295.265625 173.414062 " clip-rule="nonzero"/></clipPath><clipPath id="0c02fbee81"><path d="M 238.46875 165.121094 L 270.460938 165.121094 L 270.460938 173.410156 L 238.46875 173.410156 Z M 238.46875 165.121094 " clip-rule="nonzero"/></clipPath><clipPath id="4df46a319d"><path d="M 240.71875 165.121094 L 268.1875 165.121094 C 269.429688 165.121094 270.4375 166.128906 270.4375 167.371094 L 270.4375 171.160156 C 270.4375 172.40625 269.429688 173.410156 268.1875 173.410156 L 240.71875 173.410156 C 239.476562 173.410156 238.46875 172.40625 238.46875 171.160156 L 238.46875 167.371094 C 238.46875 166.128906 239.476562 165.121094 240.71875 165.121094 Z M 240.71875 165.121094 " clip-rule="nonzero"/></clipPath><clipPath id="3bee2aef65"><path d="M 218.007812 216.582031 L 289 216.582031 L 289 253.332031 L 218.007812 253.332031 Z M 218.007812 216.582031 " clip-rule="nonzero"/></clipPath><clipPath id="077b598bf9"><path d="M 79 187.3125 L 206.777344 187.3125 L 206.777344 253.332031 L 79 253.332031 Z M 79 187.3125 " clip-rule="nonzero"/></clipPath><clipPath id="ef9a9df5cb"><path d="M 206.777344 253.332031 L 206.777344 187.3125 L 79 187.3125 C 79 223.769531 136.21875 253.332031 206.777344 253.332031 Z M 206.777344 253.332031 " clip-rule="nonzero"/></clipPath></defs><g clip-path="url(#fd1c175f1f)"><g clip-path="url(#399deffdab)"><path fill="#d3d3d3" d="M 18.285156 18.285156 L 356.714844 18.285156 L 356.714844 356.714844 L 18.285156 356.714844 Z M 18.285156 18.285156 " fill-opacity="1" fill-rule="nonzero"/></g></g><g clip-path="url(#192f4c54f3)"><g clip-path="url(#f43f38d5be)"><path fill="#ffffff" d="M 70.4375 122.914062 L 258.355469 122.914062 L 258.355469 179.914062 L 70.4375 179.914062 Z M 70.4375 122.914062 " fill-opacity="1" fill-rule="nonzero"/></g></g><path stroke-linecap="butt" transform="matrix(0.45022, 0.599835, -0.599835, 0.45022, 258.55528, 122.813831)" fill="none" stroke-linejoin="miter" d="M 0.000497906 2.00061 L 93.366135 2.000441 " stroke="#ffffff" stroke-width="4" stroke-opacity="1" stroke-miterlimit="4"/><g clip-path="url(#18f96dbf1b)"><path fill="#ffffff" d="M 295.277344 173.414062 L 303.507812 181.765625 L 295.277344 181.765625 Z M 295.277344 173.414062 " fill-opacity="1" fill-rule="nonzero"/></g><g clip-path="url(#0c02fbee81)"><g clip-path="url(#4df46a319d)"><path fill="#ffffff" d="M 238.46875 165.121094 L 270.429688 165.121094 L 270.429688 173.410156 L 238.46875 173.410156 Z M 238.46875 165.121094 " fill-opacity="1" fill-rule="nonzero"/></g></g><g clip-path="url(#3bee2aef65)"><path fill="#ffffff" d="M 274.378906 216.707031 C 277.203125 216.71875 284.933594 216.582031 285.785156 216.636719 C 295.257812 226.660156 274.046875 231.15625 266.050781 232.222656 C 260.808594 233.109375 247.496094 234.082031 248.371094 241.085938 C 250.382812 251.769531 265.613281 250.523438 275.878906 253.332031 L 220.230469 253.332031 C 217.730469 247.007812 218.511719 238.855469 224.675781 232.777344 C 233.429688 224.15625 260.113281 225.863281 271.246094 222.152344 C 277.855469 219.949219 273.550781 217.378906 273.550781 216.816406 C 273.550781 216.738281 273.859375 216.707031 274.378906 216.707031 Z M 274.378906 216.707031 " fill-opacity="1" fill-rule="nonzero"/></g><path stroke-linecap="butt" transform="matrix(0.45022, 0.599835, -0.599835, 0.45022, 257.49491, 123.609705)" fill="none" stroke-linejoin="miter" d="M 0.00298779 1.999517 L 93.368625 1.999348 " stroke="#ffffff" stroke-width="4" stroke-opacity="1" stroke-miterlimit="4"/><g clip-path="url(#077b598bf9)"><g clip-path="url(#ef9a9df5cb)"><path fill="#ffffff" d="M 206.777344 253.332031 L 79.082031 253.332031 L 79.082031 187.3125 L 206.777344 187.3125 Z M 206.777344 253.332031 " fill-opacity="1" fill-rule="nonzero"/></g></g></svg>