<svg xmlns="http://www.w3.org/2000/svg" xmlns:xlink="http://www.w3.org/1999/xlink" width="500" zoomAndPan="magnify" viewBox="0 0 375 374.999991" height="500" preserveAspectRatio="xMidYMid meet" version="1.0"><defs><clipPath id="db4eade48c"><path d="M 50.027344 50.027344 L 324.972656 50.027344 L 324.972656 324.972656 L 50.027344 324.972656 Z M 50.027344 50.027344 " clip-rule="nonzero"/></clipPath><clipPath id="892b21a7f8"><path d="M 187.5 50.027344 C 111.578125 50.027344 50.027344 111.578125 50.027344 187.5 C 50.027344 263.421875 111.578125 324.972656 187.5 324.972656 C 263.421875 324.972656 324.972656 263.421875 324.972656 187.5 C 324.972656 111.578125 263.421875 50.027344 187.5 50.027344 Z M 187.5 50.027344 " clip-rule="nonzero"/></clipPath><clipPath id="f9b8eff73e"><path d="M 264 191 L 292.324219 191 L 292.324219 242 L 264 242 Z M 264 191 " clip-rule="nonzero"/></clipPath><clipPath id="254aad8d33"><path d="M 82.324219 191 L 111 191 L 111 242 L 82.324219 242 Z M 82.324219 191 " clip-rule="nonzero"/></clipPath></defs><g clip-path="url(#db4eade48c)"><g clip-path="url(#892b21a7f8)"><path fill="#bae6fd" d="M 50.027344 50.027344 L 324.972656 50.027344 L 324.972656 324.972656 L 50.027344 324.972656 Z M 50.027344 50.027344 " fill-opacity="1" fill-rule="nonzero"/></g></g><path fill="#ffffff" d="M 162.542969 104.460938 L 166.640625 102.226562 L 185.132812 136.128906 L 181.035156 138.363281 Z M 162.542969 104.460938 " fill-opacity="1" fill-rule="nonzero"/><path fill="#ffffff" d="M 170.277344 93.769531 C 170.277344 94.488281 170.207031 95.195312 170.066406 95.898438 C 169.925781 96.597656 169.71875 97.28125 169.445312 97.941406 C 169.171875 98.601562 168.835938 99.230469 168.4375 99.828125 C 168.042969 100.421875 167.589844 100.972656 167.082031 101.476562 C 166.578125 101.984375 166.027344 102.4375 165.433594 102.832031 C 164.835938 103.230469 164.207031 103.566406 163.546875 103.839844 C 162.886719 104.113281 162.203125 104.320312 161.503906 104.460938 C 160.800781 104.601562 160.09375 104.671875 159.375 104.671875 C 158.660156 104.671875 157.953125 104.601562 157.25 104.460938 C 156.546875 104.320312 155.867188 104.113281 155.203125 103.839844 C 154.542969 103.566406 153.914062 103.230469 153.320312 102.832031 C 152.726562 102.4375 152.175781 101.984375 151.667969 101.476562 C 151.164062 100.972656 150.710938 100.421875 150.3125 99.828125 C 149.914062 99.230469 149.578125 98.601562 149.304688 97.941406 C 149.03125 97.28125 148.824219 96.597656 148.6875 95.898438 C 148.546875 95.195312 148.476562 94.488281 148.476562 93.769531 C 148.476562 93.054688 148.546875 92.347656 148.6875 91.644531 C 148.824219 90.941406 149.03125 90.261719 149.304688 89.601562 C 149.578125 88.9375 149.914062 88.308594 150.3125 87.714844 C 150.710938 87.121094 151.164062 86.570312 151.667969 86.0625 C 152.175781 85.558594 152.726562 85.105469 153.320312 84.707031 C 153.914062 84.3125 154.542969 83.976562 155.203125 83.699219 C 155.867188 83.425781 156.546875 83.21875 157.25 83.082031 C 157.953125 82.941406 158.660156 82.871094 159.375 82.871094 C 160.09375 82.871094 160.800781 82.941406 161.503906 83.082031 C 162.203125 83.21875 162.886719 83.425781 163.546875 83.699219 C 164.207031 83.976562 164.835938 84.3125 165.433594 84.707031 C 166.027344 85.105469 166.578125 85.558594 167.082031 86.0625 C 167.589844 86.570312 168.042969 87.121094 168.4375 87.714844 C 168.835938 88.308594 169.171875 88.9375 169.445312 89.601562 C 169.71875 90.261719 169.925781 90.941406 170.066406 91.644531 C 170.207031 92.347656 170.277344 93.054688 170.277344 93.769531 Z M 170.277344 93.769531 " fill-opacity="1" fill-rule="nonzero"/><path fill="#ffffff" d="M 159.398438 107.140625 C 154.660156 107.140625 150.0625 104.621094 147.636719 100.175781 C 145.925781 97.039062 145.539062 93.425781 146.546875 89.996094 C 147.554688 86.570312 149.835938 83.742188 152.972656 82.03125 C 159.445312 78.5 167.585938 80.894531 171.117188 87.367188 C 174.644531 93.839844 172.253906 101.980469 165.78125 105.511719 C 163.75 106.617188 161.558594 107.140625 159.398438 107.140625 Z M 159.363281 85.34375 C 158 85.34375 156.617188 85.675781 155.339844 86.371094 C 153.363281 87.449219 151.925781 89.234375 151.292969 91.394531 C 150.65625 93.550781 150.898438 95.832031 151.976562 97.804688 C 154.203125 101.886719 159.332031 103.394531 163.410156 101.167969 C 167.492188 98.945312 169 93.816406 166.773438 89.734375 C 165.246094 86.933594 162.347656 85.34375 159.363281 85.34375 Z M 159.363281 85.34375 " fill-opacity="1" fill-rule="nonzero"/><path fill="#ffffff" d="M 189.835938 136.121094 L 208.332031 102.21875 L 212.429688 104.453125 L 193.933594 138.355469 Z M 189.835938 136.121094 " fill-opacity="1" fill-rule="nonzero"/><path fill="#ffffff" d="M 226.5 93.769531 C 226.5 94.488281 226.429688 95.195312 226.289062 95.898438 C 226.148438 96.597656 225.941406 97.28125 225.667969 97.941406 C 225.394531 98.601562 225.058594 99.230469 224.660156 99.828125 C 224.265625 100.421875 223.8125 100.972656 223.304688 101.476562 C 222.800781 101.984375 222.25 102.4375 221.652344 102.832031 C 221.058594 103.230469 220.429688 103.566406 219.769531 103.839844 C 219.109375 104.113281 218.425781 104.320312 217.726562 104.460938 C 217.023438 104.601562 216.316406 104.671875 215.597656 104.671875 C 214.882812 104.671875 214.175781 104.601562 213.472656 104.460938 C 212.769531 104.320312 212.089844 104.113281 211.425781 103.839844 C 210.765625 103.566406 210.136719 103.230469 209.542969 102.832031 C 208.949219 102.4375 208.398438 101.984375 207.890625 101.476562 C 207.386719 100.972656 206.933594 100.421875 206.535156 99.828125 C 206.136719 99.230469 205.800781 98.601562 205.527344 97.941406 C 205.253906 97.28125 205.046875 96.597656 204.910156 95.898438 C 204.769531 95.195312 204.699219 94.488281 204.699219 93.769531 C 204.699219 93.054688 204.769531 92.347656 204.910156 91.644531 C 205.046875 90.941406 205.253906 90.261719 205.527344 89.601562 C 205.800781 88.9375 206.136719 88.3125 206.535156 87.714844 C 206.933594 87.121094 207.386719 86.570312 207.890625 86.0625 C 208.398438 85.558594 208.949219 85.105469 209.542969 84.707031 C 210.136719 84.3125 210.765625 83.976562 211.425781 83.699219 C 212.089844 83.425781 212.769531 83.21875 213.472656 83.082031 C 214.175781 82.941406 214.882812 82.871094 215.597656 82.871094 C 216.316406 82.871094 217.023438 82.941406 217.726562 83.082031 C 218.425781 83.21875 219.109375 83.425781 219.769531 83.699219 C 220.429688 83.976562 221.058594 84.3125 221.652344 84.707031 C 222.25 85.105469 222.800781 85.558594 223.304688 86.0625 C 223.8125 86.570312 224.265625 87.121094 224.660156 87.714844 C 225.058594 88.3125 225.394531 88.9375 225.667969 89.601562 C 225.941406 90.261719 226.148438 90.941406 226.289062 91.644531 C 226.429688 92.347656 226.5 93.054688 226.5 93.769531 Z M 226.5 93.769531 " fill-opacity="1" fill-rule="nonzero"/><path fill="#ffffff" d="M 215.582031 107.148438 C 213.371094 107.148438 211.1875 106.597656 209.195312 105.511719 C 202.722656 101.980469 200.328125 93.839844 203.859375 87.367188 L 206.03125 88.550781 L 203.859375 87.367188 C 205.570312 84.230469 208.398438 81.949219 211.824219 80.941406 C 215.253906 79.933594 218.867188 80.320312 222.003906 82.03125 C 225.136719 83.742188 227.417969 86.570312 228.425781 89.996094 C 229.433594 93.425781 229.046875 97.039062 227.339844 100.175781 C 225.628906 103.308594 222.800781 105.589844 219.371094 106.597656 C 218.121094 106.96875 216.847656 107.148438 215.582031 107.148438 Z M 215.609375 85.339844 C 214.8125 85.339844 214.007812 85.453125 213.222656 85.6875 C 211.0625 86.320312 209.277344 87.757812 208.199219 89.734375 C 205.976562 93.816406 207.484375 98.945312 211.5625 101.167969 C 213.539062 102.246094 215.816406 102.492188 217.976562 101.855469 C 220.136719 101.222656 221.917969 99.78125 222.996094 97.808594 C 224.074219 95.832031 224.320312 93.554688 223.683594 91.394531 C 223.046875 89.234375 221.609375 87.449219 219.632812 86.371094 C 218.378906 85.6875 217 85.339844 215.609375 85.339844 Z M 215.609375 85.339844 " fill-opacity="1" fill-rule="nonzero"/><path fill="#ffffff" d="M 290.160156 216.179688 C 290.160156 222.253906 287.695312 227.75 283.710938 231.734375 C 280.589844 234.855469 276.539062 237.046875 272.003906 237.839844 C 273.730469 233.554688 274.691406 229.152344 274.691406 224.660156 C 274.691406 213.839844 272.472656 203.535156 268.460938 194.183594 C 280.464844 194.34375 290.160156 204.125 290.160156 216.179688 Z M 290.160156 216.179688 " fill-opacity="1" fill-rule="nonzero"/><g clip-path="url(#f9b8eff73e)"><path fill="#ffffff" d="M 268.046875 241.042969 L 269.710938 236.917969 C 271.375 232.785156 272.21875 228.660156 272.21875 224.660156 C 272.21875 214.414062 270.191406 204.488281 266.1875 195.15625 L 264.6875 191.660156 L 268.492188 191.710938 C 274.957031 191.796875 281.023438 194.378906 285.570312 198.980469 C 290.125 203.589844 292.628906 209.699219 292.628906 216.175781 C 292.628906 222.714844 290.085938 228.859375 285.460938 233.480469 C 281.882812 237.058594 277.378906 239.40625 272.429688 240.273438 Z M 272.28125 197.09375 C 275.523438 205.898438 277.164062 215.148438 277.164062 224.660156 C 277.164062 227.78125 276.726562 230.953125 275.859375 234.132812 C 278.117188 233.164062 280.183594 231.765625 281.964844 229.984375 C 285.652344 226.296875 287.6875 221.390625 287.6875 216.175781 C 287.6875 206.875 281.058594 199 272.28125 197.09375 Z M 272.28125 197.09375 " fill-opacity="1" fill-rule="nonzero"/></g><path fill="#ffffff" d="M 100.28125 224.660156 C 100.28125 229.152344 101.246094 233.554688 102.972656 237.839844 C 98.4375 237.046875 94.382812 234.855469 91.261719 231.734375 C 87.28125 227.75 84.816406 222.253906 84.816406 216.175781 C 84.816406 204.125 94.507812 194.34375 106.515625 194.183594 C 102.503906 203.535156 100.28125 213.839844 100.28125 224.660156 Z M 100.28125 224.660156 " fill-opacity="1" fill-rule="nonzero"/><g clip-path="url(#254aad8d33)"><path fill="#ffffff" d="M 106.929688 241.042969 L 102.546875 240.277344 C 97.597656 239.410156 93.089844 237.058594 89.515625 233.480469 C 84.890625 228.859375 82.34375 222.714844 82.34375 216.179688 C 82.34375 209.699219 84.851562 203.589844 89.40625 198.984375 C 93.953125 194.378906 100.015625 191.796875 106.480469 191.710938 L 110.289062 191.660156 L 108.789062 195.15625 C 104.785156 204.488281 102.753906 214.414062 102.753906 224.660156 C 102.753906 228.660156 103.601562 232.785156 105.265625 236.917969 Z M 102.695312 197.09375 C 93.914062 199 87.289062 206.875 87.289062 216.179688 C 87.289062 221.390625 89.320312 226.296875 93.011719 229.984375 C 94.789062 231.765625 96.855469 233.164062 99.113281 234.132812 C 98.25 230.953125 97.8125 227.78125 97.8125 224.660156 C 97.8125 215.148438 99.453125 205.898438 102.695312 197.09375 Z M 102.695312 197.09375 " fill-opacity="1" fill-rule="nonzero"/></g><path fill="#bae6fd" d="M 268.460938 194.183594 C 261.171875 177.171875 247.960938 163.3125 231.425781 155.167969 C 231.632812 155.828125 231.75 156.5 231.75 157.183594 C 231.75 166.550781 211.933594 174.140625 187.488281 174.140625 C 163.042969 174.140625 143.226562 166.550781 143.226562 157.183594 C 143.226562 156.5 143.34375 155.824219 143.550781 155.160156 C 135.886719 158.933594 128.9375 163.933594 122.960938 169.90625 C 116.042969 176.828125 110.425781 185.054688 106.515625 194.183594 C 102.503906 203.535156 100.28125 213.839844 100.28125 224.660156 C 100.28125 229.152344 101.246094 233.554688 102.972656 237.839844 C 109.417969 253.867188 126.503906 268.210938 143.640625 279.253906 C 170.363281 296.480469 204.609375 296.480469 231.335938 279.253906 C 242.195312 272.253906 253.035156 263.929688 261.160156 254.695312 C 265.855469 249.355469 269.648438 243.710938 272.003906 237.839844 C 273.730469 233.554688 274.691406 229.152344 274.691406 224.660156 C 274.691406 213.839844 272.472656 203.535156 268.460938 194.183594 Z M 268.460938 194.183594 " fill-opacity="1" fill-rule="nonzero"/><path fill="#ffffff" d="M 187.488281 294.644531 C 171.4375 294.644531 155.8125 290.042969 142.300781 281.332031 C 120.351562 267.1875 106.351562 252.863281 100.679688 238.761719 C 98.777344 234.042969 97.8125 229.296875 97.8125 224.660156 C 97.8125 213.738281 99.976562 203.160156 104.242188 193.207031 C 108.261719 183.828125 113.972656 175.402344 121.214844 168.160156 C 127.433594 161.941406 134.578125 156.820312 142.460938 152.941406 L 147.617188 150.402344 L 145.910156 155.894531 C 145.769531 156.355469 145.699219 156.777344 145.699219 157.183594 C 145.699219 164.035156 162.859375 171.667969 187.488281 171.667969 C 212.113281 171.667969 229.277344 164.035156 229.277344 157.183594 C 229.277344 156.78125 229.207031 156.359375 229.0625 155.898438 L 227.363281 150.410156 L 232.519531 152.949219 C 249.652344 161.390625 263.226562 175.6875 270.730469 193.207031 C 275 203.160156 277.164062 213.738281 277.164062 224.660156 C 277.164062 229.296875 276.199219 234.042969 274.296875 238.765625 C 271.976562 244.539062 268.183594 250.449219 263.015625 256.328125 C 255.675781 264.671875 245.46875 273.085938 232.675781 281.332031 C 219.160156 290.042969 203.535156 294.644531 187.488281 294.644531 Z M 141 159.296875 C 135.035156 162.648438 129.570312 166.796875 124.710938 171.65625 C 117.914062 178.449219 112.558594 186.359375 108.789062 195.15625 C 104.785156 204.488281 102.753906 214.414062 102.753906 224.660156 C 102.753906 228.660156 103.601562 232.785156 105.265625 236.917969 C 110.546875 250.050781 123.910156 263.597656 144.980469 277.175781 C 157.886719 285.496094 172.691406 289.65625 187.488281 289.660156 C 202.289062 289.660156 217.082031 285.5 229.996094 277.175781 C 242.402344 269.175781 252.265625 261.0625 259.304688 253.0625 C 264.097656 247.609375 267.597656 242.175781 269.707031 236.917969 C 271.375 232.785156 272.21875 228.660156 272.21875 224.660156 C 272.21875 214.414062 270.191406 204.488281 266.1875 195.15625 C 259.683594 179.976562 248.332031 167.378906 233.972656 159.300781 C 232.839844 164.078125 227.859375 168.34375 219.667969 171.484375 C 211.035156 174.792969 199.605469 176.613281 187.488281 176.613281 C 175.371094 176.613281 163.941406 174.792969 155.304688 171.484375 C 147.109375 168.34375 142.132812 164.074219 141 159.296875 Z M 141 159.296875 " fill-opacity="1" fill-rule="nonzero"/><path fill="#ffffff" d="M 220.902344 206.015625 C 210.910156 210.75 199.351562 213.253906 187.488281 213.253906 C 175.621094 213.253906 164.066406 210.75 154.070312 206.015625 C 150.40625 204.277344 146.988281 202.535156 143.84375 200.796875 C 134.886719 195.84375 123.683594 200.773438 121.226562 210.710938 C 120.125 215.183594 119.535156 219.855469 119.535156 224.660156 C 119.535156 234.773438 132.445312 249.132812 154.070312 263.070312 C 164.066406 269.511719 175.621094 272.917969 187.488281 272.917969 C 199.351562 272.917969 210.910156 269.511719 220.902344 263.070312 C 242.527344 249.132812 255.4375 234.773438 255.4375 224.660156 C 255.4375 219.855469 254.851562 215.183594 253.746094 210.710938 C 251.289062 200.773438 240.089844 195.84375 231.128906 200.796875 C 227.984375 202.535156 224.570312 204.28125 220.902344 206.015625 Z M 220.902344 206.015625 " fill-opacity="1" fill-rule="nonzero"/><path fill="#ffffff" d="M 187.488281 275.390625 C 175.144531 275.390625 163.125 271.847656 152.730469 265.148438 C 130.066406 250.539062 117.066406 235.78125 117.066406 224.660156 C 117.066406 219.746094 117.65625 214.855469 118.828125 210.121094 C 120.1875 204.617188 123.945312 200.160156 129.136719 197.894531 C 134.308594 195.636719 140.105469 195.902344 145.039062 198.632812 C 148.15625 200.351562 151.550781 202.085938 155.128906 203.78125 C 164.796875 208.359375 175.984375 210.78125 187.488281 210.78125 C 198.988281 210.78125 210.179688 208.359375 219.84375 203.78125 L 219.847656 203.78125 C 223.421875 202.085938 226.816406 200.355469 229.933594 198.632812 C 234.871094 195.902344 240.667969 195.632812 245.839844 197.894531 C 251.03125 200.160156 254.785156 204.617188 256.148438 210.121094 C 257.316406 214.851562 257.910156 219.746094 257.910156 224.660156 C 257.910156 235.78125 244.910156 250.535156 222.242188 265.148438 C 211.847656 271.847656 199.828125 275.390625 187.488281 275.390625 Z M 136.351562 201.320312 C 134.578125 201.320312 132.800781 201.6875 131.113281 202.425781 C 127.34375 204.070312 124.617188 207.308594 123.628906 211.304688 C 122.554688 215.652344 122.007812 220.144531 122.007812 224.660156 C 122.007812 233.789062 134.808594 247.710938 155.410156 260.992188 C 165.003906 267.175781 176.097656 270.445312 187.488281 270.445312 C 198.878906 270.445312 209.96875 267.175781 219.566406 260.992188 C 240.167969 247.710938 252.964844 233.789062 252.964844 224.660156 C 252.964844 220.144531 252.421875 215.652344 251.347656 211.304688 C 250.359375 207.308594 247.628906 204.070312 243.859375 202.425781 C 240.109375 200.785156 235.90625 200.980469 232.324219 202.960938 C 229.121094 204.730469 225.632812 206.511719 221.960938 208.25 C 211.636719 213.140625 199.71875 215.726562 187.488281 215.726562 C 175.257812 215.726562 163.335938 213.140625 153.011719 208.25 C 149.339844 206.511719 145.855469 204.730469 142.648438 202.960938 C 140.679688 201.871094 138.519531 201.320312 136.351562 201.320312 Z M 136.351562 201.320312 " fill-opacity="1" fill-rule="nonzero"/><path fill="#ffffff" d="M 231.425781 155.167969 C 231.632812 155.832031 231.75 156.503906 231.75 157.183594 C 231.75 166.550781 211.933594 174.140625 187.488281 174.140625 C 163.042969 174.140625 143.226562 166.550781 143.226562 157.183594 C 143.226562 156.503906 143.34375 155.832031 143.546875 155.167969 C 139.917969 156.957031 136.445312 159.015625 133.164062 161.328125 C 140.183594 181.679688 159.34375 195.335938 180.871094 195.335938 L 194.101562 195.335938 C 215.632812 195.335938 234.789062 181.679688 241.8125 161.328125 C 238.53125 159.015625 235.054688 156.957031 231.425781 155.167969 Z M 231.425781 155.167969 " fill-opacity="1" fill-rule="nonzero"/><path fill="#ffffff" d="M 194.101562 197.804688 L 180.871094 197.804688 C 158.300781 197.804688 138.1875 183.472656 130.828125 162.132812 L 130.21875 160.378906 L 131.738281 159.308594 C 135.105469 156.933594 138.710938 154.796875 142.457031 152.953125 L 147.609375 150.414062 L 145.910156 155.902344 C 145.765625 156.359375 145.699219 156.78125 145.699219 157.183594 C 145.699219 164.035156 162.859375 171.667969 187.488281 171.667969 C 212.113281 171.667969 229.277344 164.035156 229.277344 157.183594 C 229.277344 156.78125 229.207031 156.359375 229.066406 155.902344 L 227.367188 150.414062 L 232.519531 152.953125 C 236.261719 154.796875 239.867188 156.933594 243.234375 159.308594 L 244.753906 160.378906 L 244.148438 162.132812 C 236.785156 183.472656 216.675781 197.804688 194.101562 197.804688 Z M 136.144531 162.28125 C 143.292969 180.648438 161.035156 192.863281 180.871094 192.863281 L 194.101562 192.863281 C 213.9375 192.863281 231.679688 180.648438 238.828125 162.28125 C 237.257812 161.230469 235.632812 160.238281 233.972656 159.304688 C 232.839844 164.078125 227.859375 168.347656 219.667969 171.484375 C 211.035156 174.789062 199.605469 176.613281 187.488281 176.613281 C 175.371094 176.613281 163.941406 174.789062 155.304688 171.484375 C 147.113281 168.347656 142.136719 164.078125 141.003906 159.304688 C 139.339844 160.238281 137.71875 161.230469 136.144531 162.28125 Z M 136.144531 162.28125 " fill-opacity="1" fill-rule="nonzero"/><path fill="#bae6fd" d="M 201.742188 141.132812 C 201.996094 141.527344 202.132812 141.9375 202.132812 142.359375 C 202.132812 145.320312 195.574219 147.71875 187.488281 147.71875 C 179.398438 147.71875 172.84375 145.320312 172.84375 142.359375 C 172.84375 141.9375 172.980469 141.527344 173.230469 141.132812 C 155.785156 143.40625 143.226562 149.734375 143.226562 157.183594 C 143.226562 166.550781 163.042969 174.140625 187.488281 174.140625 C 211.933594 174.140625 231.75 166.550781 231.75 157.183594 C 231.75 149.734375 219.191406 143.40625 201.742188 141.132812 Z M 201.742188 141.132812 " fill-opacity="1" fill-rule="nonzero"/><path fill="#ffffff" d="M 187.488281 176.613281 C 175.371094 176.613281 163.941406 174.789062 155.304688 171.484375 C 145.921875 167.886719 140.753906 162.8125 140.753906 157.183594 C 140.753906 153.984375 142.449219 149.28125 150.535156 145.03125 C 156.210938 142.046875 163.949219 139.851562 172.910156 138.683594 L 178.171875 137.996094 L 175.378906 142.363281 C 176.113281 143.296875 180.257812 145.246094 187.488281 145.246094 C 194.71875 145.246094 198.863281 143.296875 199.59375 142.363281 L 196.804688 137.996094 L 202.0625 138.683594 C 211.023438 139.851562 218.761719 142.046875 224.4375 145.03125 C 232.523438 149.28125 234.222656 153.984375 234.222656 157.183594 C 234.222656 162.8125 229.054688 167.886719 219.667969 171.484375 C 211.035156 174.789062 199.605469 176.613281 187.488281 176.613281 Z M 170.667969 144.003906 C 154.261719 146.640625 145.699219 152.496094 145.699219 157.183594 C 145.699219 164.035156 162.859375 171.667969 187.488281 171.667969 C 212.113281 171.667969 229.277344 164.035156 229.277344 157.183594 C 229.277344 152.496094 220.714844 146.640625 204.304688 144.003906 C 202.691406 148.242188 194.839844 150.191406 187.488281 150.191406 C 180.136719 150.191406 172.28125 148.242188 170.667969 144.003906 Z M 199.683594 142.507812 Z M 175.292969 142.507812 Z M 175.292969 142.507812 " fill-opacity="1" fill-rule="nonzero"/><path fill="#ffffff" d="M 202.132812 142.359375 C 202.132812 142.710938 202.039062 143.058594 201.851562 143.40625 C 201.664062 143.75 201.386719 144.085938 201.019531 144.410156 C 200.648438 144.734375 200.199219 145.042969 199.664062 145.335938 C 199.128906 145.628906 198.523438 145.898438 197.84375 146.148438 C 197.164062 146.398438 196.421875 146.621094 195.625 146.816406 C 194.824219 147.011719 193.980469 147.175781 193.09375 147.3125 C 192.203125 147.445312 191.289062 147.546875 190.34375 147.617188 C 189.402344 147.683594 188.449219 147.71875 187.488281 147.71875 C 186.527344 147.71875 185.574219 147.683594 184.628906 147.617188 C 183.6875 147.546875 182.769531 147.445312 181.882812 147.3125 C 180.996094 147.175781 180.152344 147.011719 179.351562 146.816406 C 178.550781 146.621094 177.8125 146.398438 177.132812 146.148438 C 176.453125 145.898438 175.84375 145.628906 175.308594 145.335938 C 174.777344 145.042969 174.324219 144.734375 173.957031 144.410156 C 173.589844 144.085938 173.3125 143.75 173.125 143.40625 C 172.9375 143.058594 172.84375 142.710938 172.84375 142.359375 C 172.84375 142.007812 172.9375 141.660156 173.125 141.3125 C 173.3125 140.96875 173.589844 140.632812 173.957031 140.308594 C 174.324219 139.984375 174.777344 139.675781 175.308594 139.382812 C 175.84375 139.089844 176.453125 138.820312 177.132812 138.570312 C 177.8125 138.320312 178.550781 138.097656 179.351562 137.902344 C 180.152344 137.707031 180.996094 137.542969 181.882812 137.410156 C 182.769531 137.273438 183.6875 137.171875 184.628906 137.105469 C 185.574219 137.035156 186.527344 137 187.488281 137 C 188.449219 137 189.402344 137.035156 190.34375 137.105469 C 191.289062 137.171875 192.203125 137.273438 193.09375 137.410156 C 193.980469 137.542969 194.824219 137.707031 195.625 137.902344 C 196.421875 138.097656 197.164062 138.320312 197.84375 138.570312 C 198.523438 138.820312 199.128906 139.089844 199.664062 139.382812 C 200.199219 139.675781 200.648438 139.984375 201.019531 140.308594 C 201.386719 140.632812 201.664062 140.96875 201.851562 141.3125 C 202.039062 141.660156 202.132812 142.007812 202.132812 142.359375 Z M 202.132812 142.359375 " fill-opacity="1" fill-rule="nonzero"/><path fill="#ffffff" d="M 187.488281 150.191406 C 179.242188 150.191406 170.371094 147.742188 170.371094 142.359375 C 170.371094 136.980469 179.242188 134.527344 187.488281 134.527344 C 195.730469 134.527344 204.605469 136.980469 204.605469 142.359375 C 204.605469 147.742188 195.730469 150.191406 187.488281 150.191406 Z M 175.378906 142.359375 C 176.101562 143.292969 180.25 145.246094 187.488281 145.246094 C 194.726562 145.246094 198.875 143.292969 199.597656 142.359375 C 198.875 141.425781 194.726562 139.472656 187.488281 139.472656 C 180.25 139.472656 176.101562 141.425781 175.378906 142.359375 Z M 175.378906 142.359375 " fill-opacity="1" fill-rule="nonzero"/><path fill="#bae6fd" d="M 224.835938 230.3125 C 224.835938 230.871094 224.785156 231.421875 224.675781 231.96875 C 224.566406 232.515625 224.40625 233.046875 224.191406 233.558594 C 223.976562 234.074219 223.71875 234.5625 223.40625 235.027344 C 223.097656 235.492188 222.746094 235.917969 222.351562 236.3125 C 221.957031 236.707031 221.53125 237.058594 221.066406 237.367188 C 220.601562 237.679688 220.113281 237.9375 219.597656 238.152344 C 219.085938 238.367188 218.554688 238.527344 218.007812 238.636719 C 217.460938 238.746094 216.910156 238.796875 216.351562 238.796875 C 215.792969 238.796875 215.242188 238.746094 214.695312 238.636719 C 214.148438 238.527344 213.617188 238.367188 213.105469 238.152344 C 212.589844 237.9375 212.101562 237.679688 211.636719 237.367188 C 211.175781 237.058594 210.746094 236.707031 210.351562 236.3125 C 209.957031 235.917969 209.605469 235.492188 209.296875 235.027344 C 208.988281 234.5625 208.726562 234.074219 208.511719 233.558594 C 208.296875 233.046875 208.136719 232.515625 208.027344 231.96875 C 207.921875 231.421875 207.867188 230.871094 207.867188 230.3125 C 207.867188 229.753906 207.921875 229.203125 208.027344 228.65625 C 208.136719 228.109375 208.296875 227.578125 208.511719 227.066406 C 208.726562 226.550781 208.988281 226.0625 209.296875 225.597656 C 209.605469 225.136719 209.957031 224.707031 210.351562 224.3125 C 210.746094 223.917969 211.175781 223.566406 211.636719 223.257812 C 212.101562 222.949219 212.589844 222.6875 213.105469 222.472656 C 213.617188 222.257812 214.148438 222.097656 214.695312 221.988281 C 215.242188 221.882812 215.792969 221.828125 216.351562 221.828125 C 216.910156 221.828125 217.460938 221.882812 218.007812 221.988281 C 218.554688 222.097656 219.085938 222.257812 219.597656 222.472656 C 220.113281 222.6875 220.601562 222.949219 221.066406 223.257812 C 221.53125 223.566406 221.957031 223.917969 222.351562 224.3125 C 222.746094 224.707031 223.097656 225.136719 223.40625 225.597656 C 223.71875 226.0625 223.976562 226.550781 224.191406 227.066406 C 224.40625 227.578125 224.566406 228.109375 224.675781 228.65625 C 224.785156 229.203125 224.835938 229.753906 224.835938 230.3125 Z M 224.835938 230.3125 " fill-opacity="1" fill-rule="nonzero"/><path fill="#bae6fd" d="M 167.109375 230.3125 C 167.109375 230.871094 167.054688 231.421875 166.945312 231.96875 C 166.835938 232.515625 166.675781 233.046875 166.464844 233.558594 C 166.25 234.074219 165.988281 234.5625 165.679688 235.027344 C 165.371094 235.492188 165.015625 235.917969 164.625 236.3125 C 164.230469 236.707031 163.800781 237.058594 163.335938 237.367188 C 162.875 237.679688 162.386719 237.941406 161.871094 238.152344 C 161.355469 238.367188 160.824219 238.527344 160.277344 238.636719 C 159.730469 238.746094 159.179688 238.796875 158.625 238.796875 C 158.066406 238.796875 157.515625 238.746094 156.96875 238.636719 C 156.421875 238.527344 155.890625 238.367188 155.375 238.152344 C 154.859375 237.941406 154.371094 237.679688 153.910156 237.367188 C 153.445312 237.058594 153.015625 236.707031 152.621094 236.3125 C 152.230469 235.917969 151.875 235.492188 151.566406 235.027344 C 151.257812 234.5625 150.996094 234.074219 150.78125 233.558594 C 150.570312 233.046875 150.410156 232.515625 150.300781 231.96875 C 150.191406 231.421875 150.136719 230.871094 150.136719 230.3125 C 150.136719 229.753906 150.191406 229.203125 150.300781 228.65625 C 150.410156 228.109375 150.570312 227.582031 150.78125 227.066406 C 150.996094 226.550781 151.257812 226.0625 151.566406 225.597656 C 151.875 225.136719 152.230469 224.707031 152.621094 224.3125 C 153.015625 223.917969 153.445312 223.566406 153.910156 223.257812 C 154.371094 222.949219 154.859375 222.6875 155.375 222.472656 C 155.890625 222.257812 156.421875 222.097656 156.96875 221.988281 C 157.515625 221.882812 158.066406 221.828125 158.625 221.828125 C 159.179688 221.828125 159.730469 221.882812 160.277344 221.988281 C 160.824219 222.097656 161.355469 222.257812 161.871094 222.472656 C 162.386719 222.6875 162.875 222.949219 163.335938 223.257812 C 163.800781 223.566406 164.230469 223.917969 164.625 224.3125 C 165.015625 224.707031 165.371094 225.136719 165.679688 225.597656 C 165.988281 226.0625 166.25 226.550781 166.464844 227.066406 C 166.675781 227.582031 166.835938 228.109375 166.945312 228.65625 C 167.054688 229.203125 167.109375 229.753906 167.109375 230.3125 Z M 167.109375 230.3125 " fill-opacity="1" fill-rule="nonzero"/><path fill="#bae6fd" d="M 187.535156 256.8125 C 187.492188 256.8125 187.453125 256.8125 187.410156 256.8125 C 179.167969 256.777344 171.976562 253.398438 168.167969 247.765625 C 167.339844 246.542969 167.660156 244.878906 168.882812 244.050781 C 170.105469 243.226562 171.769531 243.546875 172.59375 244.769531 C 175.371094 248.875 181.058594 251.441406 187.433594 251.464844 C 193.878906 251.492188 199.476562 248.984375 202.390625 244.75 C 203.230469 243.535156 204.894531 243.226562 206.109375 244.066406 C 207.328125 244.902344 207.632812 246.566406 206.796875 247.785156 C 202.898438 253.441406 195.703125 256.8125 187.535156 256.8125 Z M 187.535156 256.8125 " fill-opacity="1" fill-rule="nonzero"/></svg>