<svg xmlns="http://www.w3.org/2000/svg" xmlns:xlink="http://www.w3.org/1999/xlink" width="500" zoomAndPan="magnify" viewBox="0 0 375 374.999991" height="500" preserveAspectRatio="xMidYMid meet" version="1.0"><defs><g/></defs><path fill="#ffffff" d="M 45.28125 219.164062 C 50.578125 217.785156 55.988281 220.960938 57.367188 226.257812 C 99.789062 374.988281 313.902344 347.605469 317.527344 192.851562 C 318.390625 89.464844 200.402344 25.054688 113.992188 81.535156 L 123.609375 95.179688 C 125.589844 97.992188 123.785156 101.894531 120.355469 102.207031 L 61.847656 107.507812 C 58.417969 107.816406 55.941406 104.300781 57.386719 101.175781 L 82.050781 47.855469 C 83.496094 44.730469 87.78125 44.34375 89.761719 47.15625 L 102.554688 65.308594 C 203.800781 0.03125 337.039062 72.328125 337.34375 192.851562 C 338.226562 275.613281 268.082031 345.761719 185.320312 344.875 C 117.46875 345.71875 54.582031 297.015625 38.191406 231.25 C 36.8125 225.953125 39.988281 220.542969 45.28125 219.164062 Z M 45.28125 219.164062 " fill-opacity="1" fill-rule="nonzero"/><g fill="#ffffff" fill-opacity="1"><g transform="translate(137.756362, 219.427144)"><g><path d="M 3.3125 0 L 3.3125 -10.296875 L 18.515625 -10.296875 L 18.515625 -49.46875 L 17.515625 -49.71875 C 15.367188 -48.6875 13.253906 -47.867188 11.171875 -47.265625 C 9.085938 -46.671875 6.710938 -46.195312 4.046875 -45.84375 L 4.046875 -56.484375 C 11.023438 -57.953125 16.664062 -60.101562 20.96875 -62.9375 L 30.828125 -62.9375 L 30.828125 -10.296875 L 44.390625 -10.296875 L 44.390625 0 Z M 3.3125 0 "/></g></g></g><g fill="#ffffff" fill-opacity="1"><g transform="translate(184.20182, 219.427144)"><g><path d="M 26.21875 0.90625 C 19.9375 0.90625 14.945312 -0.410156 11.25 -3.046875 C 7.5625 -5.691406 5.160156 -9.382812 4.046875 -14.125 L 13.46875 -18.296875 L 14.46875 -18.125 C 15.382812 -15.34375 16.753906 -13.25 18.578125 -11.84375 C 20.398438 -10.4375 22.90625 -9.734375 26.09375 -9.734375 C 29.363281 -9.734375 31.890625 -10.664062 33.671875 -12.53125 C 35.453125 -14.394531 36.34375 -17.175781 36.34375 -20.875 C 36.34375 -24.550781 35.457031 -27.335938 33.6875 -29.234375 C 31.925781 -31.128906 29.523438 -32.078125 26.484375 -32.078125 C 24.148438 -32.078125 22.191406 -31.570312 20.609375 -30.5625 C 19.035156 -29.5625 17.71875 -28.070312 16.65625 -26.09375 L 6.375 -26.828125 L 7.65625 -62.9375 L 45.125 -62.9375 L 45.125 -52.484375 L 18.125 -52.484375 L 17.515625 -36.421875 L 18.421875 -36.25 C 19.890625 -38.175781 21.640625 -39.632812 23.671875 -40.625 C 25.710938 -41.613281 28.171875 -42.109375 31.046875 -42.109375 C 34.628906 -42.109375 37.757812 -41.3125 40.4375 -39.71875 C 43.125 -38.125 45.195312 -35.753906 46.65625 -32.609375 C 48.125 -29.460938 48.859375 -25.625 48.859375 -21.09375 C 48.859375 -16.476562 47.972656 -12.523438 46.203125 -9.234375 C 44.441406 -5.953125 41.867188 -3.441406 38.484375 -1.703125 C 35.097656 0.0351562 31.007812 0.90625 26.21875 0.90625 Z M 26.21875 0.90625 "/></g></g></g></svg>