<svg xmlns="http://www.w3.org/2000/svg" xmlns:xlink="http://www.w3.org/1999/xlink" width="500" zoomAndPan="magnify" viewBox="0 0 375 374.999991" height="500" preserveAspectRatio="xMidYMid meet" version="1.0"><defs><filter x="0%" y="0%" width="100%" height="100%" id="15a386c5ae"><feColorMatrix values="0 0 0 0 1 0 0 0 0 1 0 0 0 0 1 0 0 0 1 0" color-interpolation-filters="sRGB"/></filter><clipPath id="b715399da9"><path d="M 40 17.886719 L 335.4375 17.886719 L 335.4375 356.886719 L 40 356.886719 Z M 40 17.886719 " clip-rule="nonzero"/></clipPath><clipPath id="95c5133695"><path d="M 251.253906 17.886719 L 335.253906 17.886719 L 335.253906 356.886719 L 251.253906 356.886719 Z M 251.253906 17.886719 " clip-rule="nonzero"/></clipPath><mask id="2d586d7997"><g filter="url(#15a386c5ae)"><rect x="-37.5" width="450" fill="#000000" y="-37.499999" height="449.999989" fill-opacity="0.33"/></g></mask><clipPath id="fc84dc259c"><path d="M 197.859375 0.886719 L 212.109375 0.886719 L 212.109375 339.886719 L 197.859375 339.886719 Z M 197.859375 0.886719 " clip-rule="nonzero"/></clipPath><clipPath id="52c9cf93e3"><rect x="0" width="304" y="0" height="341"/></clipPath><clipPath id="53d7659d19"><path d="M 40 17.886719 L 79.6875 17.886719 L 79.6875 356.886719 L 40 356.886719 Z M 40 17.886719 " clip-rule="nonzero"/></clipPath><mask id="7d70e9606d"><g filter="url(#15a386c5ae)"><rect x="-37.5" width="450" fill="#000000" y="-37.499999" height="449.999989" fill-opacity="0.33"/></g></mask><clipPath id="77a46daffe"><path d="M 39.5 0.886719 L 56 0.886719 L 56 339.886719 L 39.5 339.886719 Z M 39.5 0.886719 " clip-rule="nonzero"/></clipPath><clipPath id="95082b3c83"><rect x="0" width="304" y="0" height="341"/></clipPath></defs><g clip-path="url(#b715399da9)"><path fill="#85d0f0" d="M 276.53125 246.496094 C 273.277344 246.496094 270.535156 248.664062 269.480469 251.738281 C 259.171875 281.613281 230.339844 298.117188 193.214844 298.117188 C 139.109375 298.117188 106.382812 257.21875 106.382812 187.386719 C 106.382812 117.78125 139.109375 76.882812 192.992188 76.882812 C 230.980469 76.882812 260.441406 96.640625 270.128906 130.304688 C 271.066406 133.546875 273.890625 135.878906 277.261719 135.878906 C 277.261719 135.878906 318.078125 135.902344 331.300781 135.878906 C 333.519531 135.871094 335.253906 133.910156 334.964844 131.710938 C 326.324219 65.609375 266.972656 17.886719 192.992188 17.886719 C 98.632812 17.886719 40.011719 82.921875 40.011719 187.609375 C 40.011719 292.15625 98.71875 357.109375 193.214844 357.109375 C 267.460938 357.109375 324.296875 314.449219 334.953125 250.816406 C 335.328125 248.574219 333.570312 246.5 331.292969 246.496094 Z M 276.53125 246.496094 " fill-opacity="1" fill-rule="nonzero"/></g><g clip-path="url(#95c5133695)"><path fill="#0652c6" d="M 276.53125 246.496094 C 273.277344 246.496094 270.535156 248.664062 269.480469 251.738281 C 259.171875 281.613281 230.339844 298.117188 193.214844 298.117188 C 139.109375 298.117188 106.382812 257.21875 106.382812 187.386719 C 106.382812 117.78125 139.109375 76.882812 192.992188 76.882812 C 230.980469 76.882812 260.441406 96.640625 270.128906 130.304688 C 271.066406 133.546875 273.890625 135.878906 277.261719 135.878906 C 277.261719 135.878906 318.078125 135.902344 331.300781 135.878906 C 333.519531 135.871094 335.253906 133.910156 334.964844 131.710938 C 326.324219 65.609375 266.972656 17.886719 192.992188 17.886719 C 98.632812 17.886719 40.011719 82.921875 40.011719 187.609375 C 40.011719 292.15625 98.71875 357.109375 193.214844 357.109375 C 267.460938 357.109375 324.296875 314.449219 334.953125 250.816406 C 335.328125 248.574219 333.570312 246.5 331.292969 246.496094 Z M 276.53125 246.496094 " fill-opacity="1" fill-rule="nonzero"/></g><g mask="url(#2d586d7997)"><g transform="matrix(1, 0, 0, 1, 39, 17)"><g clip-path="url(#52c9cf93e3)"><g clip-path="url(#fc84dc259c)"><path fill="#128ade" d="M 237.53125 229.496094 C 234.277344 229.496094 231.535156 231.664062 230.480469 234.738281 C 220.171875 264.613281 191.339844 281.117188 154.214844 281.117188 C 100.109375 281.117188 67.382812 240.21875 67.382812 170.386719 C 67.382812 100.78125 100.109375 59.882812 153.992188 59.882812 C 191.980469 59.882812 221.441406 79.640625 231.128906 113.304688 C 232.066406 116.546875 234.890625 118.878906 238.261719 118.878906 C 238.261719 118.878906 279.078125 118.902344 292.300781 118.878906 C 294.519531 118.871094 296.253906 116.910156 295.964844 114.710938 C 287.324219 48.609375 227.972656 0.886719 153.992188 0.886719 C 59.632812 0.886719 1.011719 65.921875 1.011719 170.609375 C 1.011719 275.15625 59.71875 340.109375 154.214844 340.109375 C 228.460938 340.109375 285.296875 297.449219 295.953125 233.816406 C 296.328125 231.574219 294.570312 229.5 292.292969 229.496094 Z M 237.53125 229.496094 " fill-opacity="1" fill-rule="nonzero"/></g></g></g></g><g clip-path="url(#53d7659d19)"><path fill="#0652c6" d="M 276.53125 246.496094 C 273.277344 246.496094 270.535156 248.664062 269.480469 251.738281 C 259.171875 281.613281 230.339844 298.117188 193.214844 298.117188 C 139.109375 298.117188 106.382812 257.21875 106.382812 187.386719 C 106.382812 117.78125 139.109375 76.882812 192.992188 76.882812 C 230.980469 76.882812 260.441406 96.640625 270.128906 130.304688 C 271.066406 133.546875 273.890625 135.878906 277.261719 135.878906 C 277.261719 135.878906 318.078125 135.902344 331.300781 135.878906 C 333.519531 135.871094 335.253906 133.910156 334.964844 131.710938 C 326.324219 65.609375 266.972656 17.886719 192.992188 17.886719 C 98.632812 17.886719 40.011719 82.921875 40.011719 187.609375 C 40.011719 292.15625 98.71875 357.109375 193.214844 357.109375 C 267.460938 357.109375 324.296875 314.449219 334.953125 250.816406 C 335.328125 248.574219 333.570312 246.5 331.292969 246.496094 Z M 276.53125 246.496094 " fill-opacity="1" fill-rule="nonzero"/></g><g mask="url(#7d70e9606d)"><g transform="matrix(1, 0, 0, 1, 39, 17)"><g clip-path="url(#95082b3c83)"><g clip-path="url(#77a46daffe)"><path fill="#128ade" d="M 237.53125 229.496094 C 234.277344 229.496094 231.535156 231.664062 230.480469 234.738281 C 220.171875 264.613281 191.339844 281.117188 154.214844 281.117188 C 100.109375 281.117188 67.382812 240.21875 67.382812 170.386719 C 67.382812 100.78125 100.109375 59.882812 153.992188 59.882812 C 191.980469 59.882812 221.441406 79.640625 231.128906 113.304688 C 232.066406 116.546875 234.890625 118.878906 238.261719 118.878906 C 238.261719 118.878906 279.078125 118.902344 292.300781 118.878906 C 294.519531 118.871094 296.253906 116.910156 295.964844 114.710938 C 287.324219 48.609375 227.972656 0.886719 153.992188 0.886719 C 59.632812 0.886719 1.011719 65.921875 1.011719 170.609375 C 1.011719 275.15625 59.71875 340.109375 154.214844 340.109375 C 228.460938 340.109375 285.296875 297.449219 295.953125 233.816406 C 296.328125 231.574219 294.570312 229.5 292.292969 229.496094 Z M 237.53125 229.496094 " fill-opacity="1" fill-rule="nonzero"/></g></g></g></g></svg>